<svg xmlns="http://www.w3.org/2000/svg" viewBox="0 0 1200 630" fill="none">
  <rect width="1200" height="630" fill="#f6f3ea"/>
  <rect x="56" y="56" width="1088" height="518" rx="20" fill="none" stroke="#2a2620" stroke-opacity="0.08"/>

  <g transform="translate(108 196)">
    <rect width="128" height="128" rx="22" fill="#352e4d"/>
    <path d="M30 104L64 14L98 104" stroke="#ede8db" stroke-width="10" stroke-linecap="round" stroke-linejoin="round"/>
    <path d="M46 70H82" stroke="#aba2c8" stroke-width="10" stroke-linecap="round"/>
    <circle cx="64" cy="14" r="4" fill="#ede8db"/>
  </g>

  <g font-family="Newsreader, Iowan Old Style, Palatino Linotype, Georgia, serif">
    <text x="288" y="250" fill="#2a2620" font-size="72" font-weight="500" letter-spacing="-2">Aionis Runtime</text>
    <text x="288" y="306" fill="#6b6358" font-size="26" font-weight="400" letter-spacing="-0.3">Local continuity runtime for coding agents</text>
  </g>

  <line x1="288" y1="362" x2="360" y2="362" stroke="#2a2620" stroke-opacity="0.2" stroke-width="1"/>

  <g font-family="JetBrains Mono, SFMono-Regular, monospace" fill="#6b6358" font-size="18">
    <text x="288" y="410">Task start &#183; Structured handoff &#183; Replay and playbooks</text>
    <text x="288" y="446">$ npm install @ostinato/aionis</text>
  </g>

  <g transform="translate(288 486)" font-family="JetBrains Mono, SFMono-Regular, monospace" font-size="13" fill="#6b6358">
    <g>
      <circle cx="5" cy="9" r="3" fill="#7a6fa4"/>
      <text x="18" y="13">Lite ships today</text>
    </g>
    <g transform="translate(170 0)">
      <circle cx="5" cy="9" r="3" fill="#8ba392"/>
      <text x="18" y="13">v0.1.0</text>
    </g>
    <g transform="translate(270 0)">
      <circle cx="5" cy="9" r="3" fill="#b39a74"/>
      <text x="18" y="13">MIT</text>
    </g>
    <g transform="translate(340 0)">
      <circle cx="5" cy="9" r="3" fill="#7a6fa4"/>
      <text x="18" y="13">15 / 15 benchmarks</text>
    </g>
  </g>
</svg>
